<svg width="36" height="36" viewBox="0 0 36 36" fill="none" xmlns="http://www.w3.org/2000/svg">
<path fill-rule="evenodd" clip-rule="evenodd" d="M6.75 10.5075H2.25C1.62868 10.5075 1.125 10.0038 1.125 9.38251C1.125 8.76119 1.62868 8.25751 2.25 8.25751H6.75V3.75751C6.75 3.13619 7.25368 2.63251 7.875 2.63251C8.49632 2.63251 9 3.13619 9 3.75751V8.25751H13.5C14.1213 8.25751 14.625 8.76119 14.625 9.38251C14.625 10.0038 14.1213 10.5075 13.5 10.5075H9V15.0075C9 15.6288 8.49632 16.1325 7.875 16.1325C7.25368 16.1325 6.75 15.6288 6.75 15.0075V10.5075ZM32.625 9.7425H26.5725L25.245 7.0875C24.6763 5.94584 23.5054 5.22933 22.23 5.2425H16.02C15.3987 5.2425 14.895 5.74618 14.895 6.3675C14.895 6.98882 15.3987 7.4925 16.02 7.4925H22.23C22.6552 7.48738 23.0469 7.72242 23.2425 8.1L24.8625 11.3625C25.0558 11.7451 25.4463 11.9881 25.875 11.9925H32.625C33.2463 11.9925 33.75 12.4962 33.75 13.1175V29.9925C33.75 30.6138 33.2463 31.1175 32.625 31.1175H3.375C2.75368 31.1175 2.25 30.6138 2.25 29.9925V15.3675C2.25 14.7462 1.74632 14.2425 1.125 14.2425C0.50368 14.2425 0 14.7462 0 15.3675V29.9925C0 31.8565 1.51104 33.3675 3.375 33.3675H32.625C34.489 33.3675 36 31.8565 36 29.9925V13.1175C36 11.2535 34.489 9.7425 32.625 9.7425ZM18 27.7425C14.2721 27.7425 11.25 24.7204 11.25 20.9925C11.25 17.2646 14.2721 14.2425 18 14.2425C21.7279 14.2425 24.75 17.2646 24.75 20.9925C24.75 24.7204 21.7279 27.7425 18 27.7425ZM22.5 20.9925C22.5 18.5072 20.4853 16.4925 18 16.4925C15.5147 16.4925 13.5 18.5072 13.5 20.9925C13.5 23.4778 15.5147 25.4925 18 25.4925C20.4853 25.4925 22.5 23.4778 22.5 20.9925Z" fill="#D8D8D8"/>
</svg>
